<svg width="713" height="116" viewBox="0 0 713 116" fill="none" xmlns="http://www.w3.org/2000/svg">
<path d="M184.08 94.248C179.792 94.248 175.952 93.512 172.56 92.04C169.232 90.504 166.384 88.392 164.016 85.704C161.712 82.952 159.952 79.72 158.736 76.008C157.52 72.232 156.912 68.136 156.912 63.72V31.272C156.912 30.376 157.008 29.608 157.2 28.968C157.456 28.328 157.872 27.848 158.448 27.528C159.088 27.144 160.048 26.952 161.328 26.952C162.608 26.952 163.568 27.144 164.208 27.528C164.848 27.848 165.264 28.328 165.456 28.968C165.648 29.608 165.744 30.408 165.744 31.368V63.72C165.744 68.008 166.448 71.784 167.856 75.048C169.264 78.312 171.344 80.904 174.096 82.824C176.848 84.68 180.272 85.608 184.368 85.608C188.208 85.608 191.504 84.712 194.256 82.92C197.008 81.128 199.12 78.6 200.592 75.336C202.064 72.072 202.8 68.168 202.8 63.624V30.696C202.8 29.928 202.896 29.288 203.088 28.776C203.344 28.2 203.792 27.752 204.432 27.432C205.072 27.112 206.032 26.952 207.312 26.952C208.528 26.952 209.424 27.144 210 27.528C210.64 27.848 211.056 28.328 211.248 28.968C211.44 29.608 211.536 30.408 211.536 31.368V63.912C211.536 68.392 210.928 72.488 209.712 76.2C208.496 79.848 206.704 83.048 204.336 85.8C202.032 88.488 199.152 90.568 195.696 92.04C192.304 93.512 188.432 94.248 184.08 94.248ZM228.806 93.96C227.526 93.96 226.566 93.768 225.926 93.384C225.35 93.064 224.966 92.584 224.773 91.944C224.582 91.24 224.486 90.44 224.486 89.544V31.272C224.486 30.376 224.582 29.608 224.773 28.968C225.03 28.328 225.446 27.848 226.022 27.528C226.662 27.144 227.622 26.952 228.902 26.952C230.182 26.952 231.11 27.144 231.686 27.528C232.326 27.848 232.71 28.328 232.838 28.968C233.03 29.608 233.126 30.408 233.126 31.368V89.64C233.126 90.536 233.03 91.304 232.838 91.944C232.646 92.584 232.23 93.064 231.59 93.384C231.014 93.768 230.086 93.96 228.806 93.96ZM299.241 94.632C294.697 94.632 290.409 93.768 286.377 92.04C282.409 90.312 278.889 87.912 275.817 84.84C272.809 81.704 270.441 78.12 268.713 74.088C266.985 70.056 266.121 65.704 266.121 61.032C266.121 56.296 266.953 51.848 268.617 47.688C270.281 43.464 272.585 39.784 275.529 36.648C278.537 33.512 281.993 31.048 285.897 29.256C289.801 27.464 293.961 26.568 298.377 26.568C302.985 26.568 307.273 27.432 311.241 29.16C315.273 30.888 318.761 33.32 321.705 36.456C324.713 39.528 327.081 43.144 328.809 47.304C330.537 51.464 331.401 55.912 331.401 60.648C331.401 65.32 330.537 69.704 328.809 73.8C327.145 77.832 324.841 81.448 321.897 84.648C318.953 87.784 315.529 90.248 311.625 92.04C307.785 93.768 303.657 94.632 299.241 94.632ZM298.665 85.896C301.993 85.896 305.097 85.256 307.977 83.976C310.921 82.696 313.481 80.904 315.657 78.6C317.833 76.232 319.529 73.544 320.745 70.536C322.025 67.464 322.665 64.136 322.665 60.552C322.665 57.096 322.025 53.864 320.745 50.856C319.529 47.784 317.801 45.096 315.561 42.792C313.385 40.424 310.857 38.568 307.977 37.224C305.097 35.88 302.025 35.208 298.761 35.208C295.497 35.208 292.425 35.88 289.545 37.224C286.665 38.568 284.105 40.392 281.865 42.696C279.689 45 277.961 47.688 276.681 50.76C275.465 53.832 274.857 57.128 274.857 60.648C274.857 64.104 275.465 67.368 276.681 70.44C277.961 73.512 279.689 76.2 281.865 78.504C284.105 80.808 286.633 82.632 289.449 83.976C292.329 85.256 295.401 85.896 298.665 85.896ZM344.21 93.96C342.994 93.96 342.066 93.768 341.426 93.384C340.85 93.064 340.466 92.584 340.273 91.944C340.146 91.24 340.082 90.44 340.082 89.544V51.72C340.082 50.76 340.178 49.96 340.37 49.32C340.562 48.68 340.946 48.232 341.522 47.976C342.098 47.656 343.026 47.496 344.306 47.496C345.458 47.496 346.322 47.656 346.898 47.976C347.538 48.232 347.954 48.648 348.146 49.224C348.402 49.736 348.53 50.344 348.53 51.048L348.146 53.928C348.594 53.096 349.106 52.264 349.682 51.432C350.322 50.6 351.09 49.864 351.986 49.224C352.946 48.52 354.066 47.944 355.346 47.496C356.69 47.048 358.322 46.824 360.242 46.824C361.202 46.824 362.098 46.92 362.93 47.112C363.826 47.24 364.658 47.464 365.426 47.784C366.258 48.104 366.962 48.488 367.538 48.936C368.114 49.32 368.562 49.768 368.882 50.28C369.266 50.728 369.458 51.272 369.458 51.912C369.458 53.32 369.01 54.536 368.114 55.56C367.218 56.52 366.29 57 365.33 57C364.498 57 363.89 56.904 363.506 56.712C363.122 56.456 362.738 56.2 362.354 55.944C362.034 55.688 361.554 55.464 360.914 55.272C360.274 55.016 359.25 54.888 357.842 54.888C356.882 54.888 355.858 55.08 354.77 55.464C353.746 55.848 352.754 56.424 351.794 57.192C350.834 57.896 350.034 58.824 349.394 59.976C348.818 61.128 348.53 62.472 348.53 64.008V89.736C348.53 90.632 348.434 91.4 348.242 92.04C348.05 92.68 347.634 93.16 346.994 93.48C346.418 93.8 345.49 93.96 344.21 93.96ZM395.663 112.776C393.423 112.776 391.279 112.52 389.231 112.008C387.183 111.496 385.391 110.824 383.855 109.992C382.319 109.16 381.103 108.264 380.207 107.304C379.311 106.344 378.863 105.448 378.863 104.616C378.863 103.976 378.959 103.432 379.151 102.984C379.343 102.6 379.631 102.184 380.015 101.736C380.655 101.096 381.167 100.648 381.551 100.392C381.935 100.136 382.447 100.008 383.087 100.008C383.727 100.008 384.367 100.264 385.007 100.776C385.647 101.352 386.415 101.96 387.311 102.6C388.271 103.304 389.423 103.912 390.767 104.424C392.175 105 393.903 105.288 395.951 105.288C398.063 105.288 399.951 104.968 401.615 104.328C403.279 103.688 404.719 102.728 405.935 101.448C407.151 100.168 408.079 98.6 408.719 96.744C409.359 94.952 409.679 92.904 409.679 90.6L409.487 50.664C409.551 49.448 409.903 48.584 410.543 48.072C411.247 47.56 412.335 47.304 413.807 47.304C415.023 47.304 415.887 47.496 416.399 47.88C416.975 48.2 417.327 48.68 417.455 49.32C417.647 49.896 417.743 50.632 417.743 51.528V91.272C417.743 94.664 417.199 97.672 416.111 100.296C415.023 102.984 413.487 105.256 411.503 107.112C409.519 108.968 407.183 110.376 404.495 111.336C401.807 112.296 398.863 112.776 395.663 112.776ZM395.375 92.904C392.303 92.904 389.455 92.36 386.831 91.272C384.271 90.12 381.999 88.52 380.015 86.472C378.095 84.424 376.591 82.024 375.503 79.272C374.479 76.52 373.967 73.512 373.967 70.248C373.967 66.984 374.479 63.976 375.503 61.224C376.591 58.472 378.095 56.072 380.015 54.024C381.935 51.976 384.175 50.408 386.735 49.32C389.359 48.168 392.207 47.592 395.279 47.592C398.095 47.592 400.655 48.136 402.959 49.224C405.263 50.312 407.215 51.88 408.815 53.928C410.479 55.912 411.727 58.28 412.559 61.032C413.391 63.784 413.807 66.856 413.807 70.248C413.807 74.856 413.071 78.856 411.599 82.248C410.127 85.64 408.015 88.264 405.263 90.12C402.511 91.976 399.215 92.904 395.375 92.904ZM395.855 85.032C398.415 85.032 400.719 84.392 402.767 83.112C404.815 81.832 406.447 80.072 407.663 77.832C408.879 75.592 409.487 73 409.487 70.056C409.487 67.176 408.879 64.648 407.663 62.472C406.447 60.232 404.783 58.504 402.671 57.288C400.623 56.072 398.287 55.464 395.663 55.464C393.039 55.464 390.703 56.072 388.655 57.288C386.607 58.504 385.007 60.232 383.855 62.472C382.767 64.648 382.223 67.208 382.223 70.152C382.223 73.096 382.799 75.688 383.951 77.928C385.103 80.104 386.703 81.832 388.751 83.112C390.799 84.392 393.167 85.032 395.855 85.032ZM468.506 93.864C467.098 93.864 466.074 93.576 465.434 93C464.858 92.424 464.506 91.528 464.378 90.312L464.762 85.512C464.122 86.536 463.13 87.72 461.786 89.064C460.442 90.344 458.682 91.496 456.506 92.52C454.33 93.48 451.674 93.96 448.538 93.96C445.466 93.96 442.586 93.352 439.898 92.136C437.274 90.92 434.938 89.224 432.89 87.048C430.906 84.872 429.338 82.376 428.186 79.56C427.098 76.744 426.554 73.736 426.554 70.536C426.554 67.4 427.098 64.456 428.186 61.704C429.338 58.888 430.938 56.424 432.986 54.312C435.034 52.2 437.37 50.536 439.994 49.32C442.682 48.104 445.53 47.496 448.538 47.496C451.354 47.496 453.754 47.88 455.738 48.648C457.722 49.352 459.418 50.312 460.826 51.528C462.298 52.68 463.578 53.992 464.666 55.464L464.474 51.432C464.41 50.024 464.698 49.032 465.338 48.456C466.042 47.816 467.13 47.496 468.602 47.496C469.818 47.496 470.682 47.688 471.194 48.072C471.77 48.456 472.154 49 472.346 49.704C472.538 50.408 472.634 51.272 472.634 52.296V89.352C472.634 90.248 472.538 91.048 472.346 91.752C472.154 92.456 471.77 92.968 471.194 93.288C470.618 93.672 469.722 93.864 468.506 93.864ZM449.978 85.896C452.538 85.896 454.874 85.224 456.986 83.88C459.162 82.536 460.858 80.744 462.074 78.504C463.354 76.2 463.994 73.576 463.994 70.632C463.994 67.624 463.322 65 461.978 62.76C460.698 60.456 458.97 58.664 456.794 57.384C454.682 56.04 452.346 55.368 449.786 55.368C446.778 55.368 444.154 56.072 441.914 57.48C439.738 58.824 438.01 60.648 436.73 62.952C435.45 65.256 434.81 67.88 434.81 70.824C434.81 73.704 435.45 76.296 436.73 78.6C438.01 80.84 439.77 82.632 442.01 83.976C444.314 85.256 446.97 85.896 449.978 85.896ZM488.303 93.864C487.087 93.864 486.159 93.672 485.519 93.288C484.943 92.968 484.559 92.488 484.367 91.848C484.239 91.208 484.175 90.44 484.175 89.544V51.432C484.175 50.6 484.271 49.896 484.463 49.32C484.655 48.744 485.039 48.296 485.615 47.976C486.255 47.656 487.183 47.496 488.399 47.496C489.359 47.496 490.095 47.624 490.607 47.88C491.183 48.072 491.567 48.36 491.759 48.744C492.015 49.128 492.175 49.544 492.239 49.992C492.303 50.44 492.335 50.856 492.335 51.24L492.143 55.656C492.783 54.568 493.583 53.544 494.543 52.584C495.503 51.56 496.623 50.664 497.903 49.896C499.183 49.064 500.559 48.424 502.031 47.976C503.567 47.528 505.199 47.304 506.927 47.304C509.743 47.304 512.335 47.816 514.703 48.84C517.071 49.8 519.087 51.24 520.751 53.16C522.479 55.016 523.791 57.256 524.687 59.88C525.647 62.504 526.127 65.48 526.127 68.808V89.64C526.127 90.536 526.031 91.304 525.839 91.944C525.711 92.584 525.327 93.064 524.687 93.384C524.111 93.704 523.215 93.864 521.999 93.864C520.719 93.864 519.759 93.672 519.119 93.288C518.543 92.968 518.159 92.488 517.967 91.848C517.775 91.208 517.679 90.44 517.679 89.544V68.712C517.679 66.024 517.231 63.688 516.335 61.704C515.439 59.72 514.095 58.184 512.303 57.096C510.511 55.944 508.239 55.368 505.487 55.368C502.863 55.368 500.559 55.944 498.575 57.096C496.655 58.184 495.151 59.72 494.063 61.704C493.039 63.688 492.527 66.024 492.527 68.712V89.64C492.527 90.536 492.431 91.304 492.239 91.944C492.047 92.584 491.631 93.064 490.991 93.384C490.415 93.704 489.519 93.864 488.303 93.864ZM542.221 93.96C541.005 93.96 540.077 93.768 539.437 93.384C538.861 93.064 538.477 92.584 538.285 91.944C538.093 91.304 537.997 90.536 537.997 89.64V51.72C537.997 50.824 538.093 50.056 538.285 49.416C538.477 48.776 538.861 48.296 539.437 47.976C540.077 47.656 541.037 47.496 542.317 47.496C543.533 47.496 544.429 47.688 545.005 48.072C545.581 48.392 545.965 48.872 546.157 49.512C546.349 50.152 546.445 50.952 546.445 51.912V89.736C546.445 90.632 546.349 91.4 546.157 92.04C545.965 92.68 545.549 93.16 544.909 93.48C544.333 93.8 543.437 93.96 542.221 93.96ZM542.221 35.976C540.813 35.976 539.757 35.784 539.053 35.4C538.349 34.952 537.869 34.344 537.613 33.576C537.421 32.808 537.325 31.912 537.325 30.888C537.325 29.864 537.453 29 537.709 28.296C537.965 27.528 538.445 26.984 539.149 26.664C539.853 26.28 540.909 26.088 542.317 26.088C543.661 26.088 544.685 26.28 545.389 26.664C546.093 27.048 546.541 27.624 546.733 28.392C546.989 29.16 547.117 30.056 547.117 31.08C547.117 32.104 546.989 33 546.733 33.768C546.541 34.472 546.093 35.016 545.389 35.4C544.685 35.784 543.629 35.976 542.221 35.976ZM560.714 93.96C559.37 93.96 558.314 93.608 557.546 92.904C556.842 92.2 556.49 91.176 556.49 89.832C556.49 89.128 556.586 88.52 556.778 88.008C557.034 87.432 557.418 86.92 557.93 86.472L586.154 55.944H563.018C562.122 55.944 561.354 55.88 560.714 55.752C560.074 55.56 559.562 55.144 559.178 54.504C558.858 53.864 558.698 52.936 558.698 51.72C558.698 50.44 558.858 49.512 559.178 48.936C559.562 48.296 560.074 47.912 560.714 47.784C561.354 47.592 562.122 47.496 563.018 47.496H594.89C596.298 47.496 597.354 47.848 598.058 48.552C598.762 49.256 599.114 50.248 599.114 51.528C599.114 52.168 599.018 52.744 598.826 53.256C598.634 53.768 598.378 54.184 598.058 54.504L569.834 85.416H596.138C597.034 85.416 597.802 85.544 598.442 85.8C599.082 85.992 599.562 86.408 599.882 87.048C600.202 87.624 600.362 88.552 600.362 89.832C600.362 91.048 600.17 91.976 599.786 92.616C599.466 93.192 598.986 93.544 598.346 93.672C597.706 93.864 596.938 93.96 596.042 93.96H560.714ZM631.874 94.44C628.034 94.44 624.61 93.8 621.602 92.52C618.594 91.24 616.034 89.512 613.922 87.336C611.874 85.096 610.306 82.536 609.218 79.656C608.13 76.776 607.586 73.672 607.586 70.344C607.586 65.928 608.61 61.992 610.658 58.536C612.706 55.08 615.522 52.36 619.106 50.376C622.754 48.328 626.914 47.304 631.586 47.304C634.786 47.304 637.634 47.816 640.13 48.84C642.69 49.8 644.866 51.112 646.658 52.776C648.45 54.44 649.826 56.296 650.786 58.344C651.746 60.392 652.226 62.44 652.226 64.488C652.226 67.752 651.458 70.056 649.922 71.4C648.386 72.68 646.498 73.32 644.258 73.32H616.514C616.45 76.136 617.186 78.568 618.722 80.616C620.322 82.6 622.306 84.136 624.674 85.224C627.106 86.312 629.538 86.856 631.97 86.856C633.762 86.856 635.298 86.76 636.578 86.568C637.858 86.376 638.978 86.12 639.938 85.8C640.898 85.48 641.73 85.16 642.434 84.84C643.138 84.52 643.746 84.2 644.258 83.88C644.834 83.56 645.378 83.336 645.89 83.208C646.466 83.08 647.01 83.144 647.522 83.4C648.098 83.592 648.546 84.008 648.866 84.648C649.25 85.16 649.506 85.64 649.634 86.088C649.762 86.536 649.826 87.016 649.826 87.528C649.826 88.424 649.058 89.416 647.522 90.504C645.986 91.592 643.842 92.52 641.09 93.288C638.402 94.056 635.33 94.44 631.874 94.44ZM616.514 67.656H640.61C641.826 67.656 642.722 67.496 643.298 67.176C643.938 66.856 644.258 65.992 644.258 64.584C644.258 62.792 643.714 61.192 642.626 59.784C641.538 58.312 640.034 57.128 638.114 56.232C636.258 55.336 634.114 54.888 631.682 54.888C628.866 54.888 626.274 55.464 623.906 56.616C621.602 57.704 619.778 59.208 618.434 61.128C617.09 63.048 616.45 65.224 616.514 67.656ZM681.893 93.96C679.013 93.96 676.261 93.384 673.637 92.232C671.013 91.08 668.709 89.448 666.725 87.336C664.805 85.224 663.269 82.76 662.117 79.944C661.029 77.064 660.485 73.928 660.485 70.536C660.485 67.208 661.029 64.136 662.117 61.32C663.269 58.504 664.805 56.072 666.725 54.024C668.709 51.912 671.013 50.28 673.637 49.128C676.261 47.976 679.013 47.4 681.893 47.4C685.029 47.4 687.845 47.976 690.341 49.128C692.901 50.28 695.077 51.912 696.869 54.024C698.725 56.072 700.133 58.536 701.093 61.416C702.053 64.232 702.533 67.304 702.533 70.632C702.597 74.024 702.117 77.128 701.093 79.944C700.133 82.76 698.757 85.224 696.965 87.336C695.173 89.448 692.997 91.08 690.437 92.232C687.941 93.384 685.093 93.96 681.893 93.96ZM683.141 85.8C685.829 85.8 688.229 85.16 690.341 83.88C692.517 82.6 694.213 80.84 695.429 78.6C696.709 76.296 697.349 73.672 697.349 70.728C697.349 67.72 696.709 65.096 695.429 62.856C694.213 60.552 692.517 58.76 690.341 57.48C688.229 56.2 685.829 55.56 683.141 55.56C680.453 55.56 678.021 56.2 675.845 57.48C673.669 58.76 671.941 60.552 670.661 62.856C669.445 65.096 668.837 67.72 668.837 70.728C668.837 73.672 669.445 76.296 670.661 78.6C671.941 80.84 673.669 82.6 675.845 83.88C678.085 85.16 680.517 85.8 683.141 85.8ZM701.957 93.96C700.549 93.96 699.525 93.704 698.885 93.192C698.245 92.68 697.861 91.816 697.733 90.6V30.504C697.733 29.544 697.797 28.744 697.925 28.104C698.117 27.464 698.501 26.984 699.077 26.664C699.717 26.28 700.645 26.088 701.861 26.088C703.077 26.088 703.973 26.28 704.549 26.664C705.189 26.984 705.605 27.464 705.797 28.104C705.989 28.744 706.085 29.512 706.085 30.408V89.544C706.085 90.44 705.989 91.24 705.797 91.944C705.605 92.584 705.221 93.064 704.645 93.384C704.069 93.768 703.173 93.96 701.957 93.96Z" fill="black"/>
<path d="M46 21.428C46 24.5053 48.4947 27 51.572 27H93.4221C96.4995 27 98.9941 24.5053 98.9941 21.428V10C98.9941 7.79086 100.785 6 102.994 6C105.203 6 106.994 7.79086 106.994 10V21.428C106.994 24.5053 109.489 27 112.566 27H120C122.209 27 124 28.7909 124 31C124 33.2091 122.209 35 120 35H112.566C109.489 35 106.994 37.4947 106.994 40.572V80.3958C106.994 83.4731 109.489 85.9678 112.566 85.9678H140C142.209 85.9678 144 87.7586 144 89.9678C144 92.1769 142.209 93.9678 140 93.9678H112.566C109.489 93.9678 106.994 96.4625 106.994 99.5398V111.001C106.994 113.21 105.203 115.001 102.994 115.001C100.785 115.001 98.9941 113.21 98.9941 111.001V99.5398C98.9941 96.4625 96.4995 93.9678 93.4221 93.9678H51.572C48.4947 93.9678 46 96.4625 46 99.5398V110.001C46 112.21 44.2091 114.001 42 114.001C39.7909 114.001 38 112.21 38 110.001V99.5398C38 96.4625 35.5053 93.9678 32.428 93.9678H24C21.7909 93.9678 20 92.1769 20 89.9678C20 87.7586 21.7909 85.9678 24 85.9678H32.428C35.5053 85.9678 38 83.4731 38 80.3958V40.572C38 37.4947 35.5053 35 32.428 35H4C1.79086 35 0 33.2091 0 31C0 28.7909 1.79086 27 4 27H32.428C35.5053 27 38 24.5053 38 21.428V10C38 7.79086 39.7909 6 42 6C44.2091 6 46 7.79086 46 10V21.428ZM51.572 35C48.4947 35 46 37.4947 46 40.572V80.3958C46 83.4731 48.4947 85.9678 51.572 85.9678H93.4221C96.4995 85.9678 98.9941 83.4731 98.9941 80.3958V40.572C98.9941 37.4947 96.4995 35 93.4221 35H51.572Z" fill="black"/>
</svg>
